<svg width="572" height="296" viewBox="0 0 572 296" fill="none" xmlns="http://www.w3.org/2000/svg">
<path fill-rule="evenodd" clip-rule="evenodd" d="M199.927 3.37795C203.042 3.16312 209.852 4.98913 212.172 14.0118C214.712 23.8925 212.307 31.7946 210.371 38.1515C210.098 39.0506 209.833 39.9189 209.594 40.7574C209.223 42.0567 208.531 44.1518 207.668 46.7622C204.04 57.7481 197.398 77.861 198.96 86.1928C199.42 88.6491 199.662 90.5386 199.853 92.0398C200.466 96.8407 200.572 97.671 205.727 100.371C212.494 103.916 213.783 89.7374 214.105 85.2261C214.427 80.7148 221.516 43.9798 224.417 39.4685C225.013 38.5402 225.774 36.9161 226.746 34.8404C230.497 26.8286 237.399 12.0889 250.196 4.66689C266.307 -4.67797 280.808 1.44453 290.797 10.4672C300.787 19.4898 315.287 46.5577 316.576 58.1582C316.996 61.9373 317.861 65.648 318.925 70.2149C321.127 79.667 324.183 92.7868 325.921 117.772C328.499 154.829 328.177 178.675 326.888 188.986C326.694 190.534 326.462 192.531 326.243 195.109C325.144 208.084 322.858 231.993 309.165 260.201C296.275 286.753 276.619 290.491 269.208 290.169C259.648 290.383 238.015 284.626 227.961 259.878C215.781 229.896 213.892 198.703 212.908 182.435C212.876 181.918 212.846 181.416 212.816 180.93C212.564 176.809 212.553 172.951 212.543 169.385C212.515 159.29 212.493 151.536 207.016 146.773C199.604 140.329 197.671 163.852 198.315 169.974C198.429 171.056 198.513 172.511 198.62 174.368C199.118 183.019 200.118 200.407 207.016 229.588C215.394 265.034 213.138 272.446 201.538 283.402C189.937 294.358 162.869 291.135 155.136 278.89C147.402 266.645 155.136 247.956 160.292 236.677C165.447 225.399 169.636 171.263 170.925 149.996C171.185 145.715 171.536 138.994 171.957 130.924C173.628 98.9002 177.603 46.0168 178.981 39.4685C180.27 33.346 180.729 32.7015 181.233 29.3142C182.247 22.4979 183.359 15.0204 188.326 10.4672C194.513 4.79579 198.638 3.37795 199.927 3.37795ZM256.64 61.7028C251.202 67.1409 246.436 102.627 245.04 120.028C244.825 130.232 245.169 158.309 248.262 188.986C252.129 227.332 262.118 229.588 268.885 229.588C275.652 229.588 281.453 225.399 285.642 207.676C288.993 193.498 290.475 164.604 290.797 151.929C291.334 129.05 290.153 79.5547 281.13 64.6029C271.326 48.3566 265.662 53.5373 259.48 59.1911C258.551 60.0414 257.607 60.7361 256.64 61.7028Z" fill="#FFEEE2" fill-opacity="0.95"/>
<path fill-rule="evenodd" clip-rule="evenodd" d="M330.859 9.00793C328.926 11.2636 325.639 17.515 327.959 24.4753C329.378 28.7338 331.879 32.9152 334.062 36.5659C336.339 40.3737 338.27 43.6043 338.27 45.7429C338.27 46.9952 338.702 48.9385 339.317 51.7021C340.757 58.1833 343.2 69.1757 343.426 86.3448C343.684 105.937 342.46 144.992 341.815 162.07C340.741 183.123 338.27 226.904 336.981 233.607C335.693 240.309 331.074 257.882 328.926 265.831C327.959 270.02 327.379 279.558 332.792 284.198C333.171 284.523 333.538 284.843 333.9 285.158C340.004 290.481 344.458 294.366 372.75 291.932C396.724 289.87 403.362 274.961 403.684 267.764C404.007 264.864 402.653 255.068 394.662 239.085C384.673 219.106 377.261 197.839 378.872 188.816C378.228 180.116 379.839 168.193 381.128 166.582C381.338 166.32 381.539 165.818 381.826 165.103C383.303 161.424 387.054 152.082 405.94 140.481C428.497 126.624 436.553 100.523 436.23 97.9453C436.875 95.0452 442.031 66.3661 437.842 53.4766C437.478 52.3563 437.118 51.2093 436.753 50.0427C432.915 37.7865 428.4 23.3689 410.451 15.1304C391.363 6.36847 377.137 6.41922 374.265 6.42947C374.179 6.42977 374.104 6.43004 374.039 6.43004C371.783 6.43004 352.771 5.78557 351.482 4.81886C350.193 3.85215 332.47 5.14109 330.859 9.00793ZM383.061 46.3874C375.585 45.8718 373.931 54.1211 374.039 58.3102C375.005 57.9879 374.683 97.9453 374.039 100.523C373.394 103.101 371.461 118.246 377.583 118.891C382.425 119.4 383.035 118.902 387.221 115.485C388.329 114.581 389.687 113.472 391.439 112.124C399.818 105.679 406.585 85.7003 403.04 67.9773C399.495 50.2542 392.406 47.0319 383.061 46.3874Z" fill="#FFEEE2" fill-opacity="0.95"/>
<path fill-rule="evenodd" clip-rule="evenodd" d="M444.991 92.0861C447.569 78.2299 454.014 48.1975 459.169 38.9171C459.907 37.59 460.61 36.2503 461.313 34.9114C466.756 24.5467 472.172 14.2332 493.004 10.238C516.528 5.72668 534.573 28.9277 541.984 45.3618C549.396 61.7959 559.063 92.7306 564.219 121.41C569.374 150.089 573.241 184.568 571.63 194.557C571.275 196.756 571.186 199.314 571.081 202.34C570.706 213.065 570.127 229.678 556.807 257.071C539.729 292.195 498.16 296.062 489.46 295.74C489.079 295.726 488.654 295.713 488.186 295.7C477.941 295.406 447.383 294.527 429.201 260.938C412.543 230.163 416.665 204.831 418.808 191.66C419.111 189.799 419.375 188.18 419.534 186.824C420.823 175.868 432.424 140.744 436.613 128.821C439.964 119.283 443.595 100.357 444.991 92.0861ZM481.404 85.6414C477.795 94.4062 472.166 123.236 469.803 136.555C467.977 146.437 464.003 169.874 462.714 184.568C460.136 203.258 467.548 220.659 472.381 226.137C477.215 231.615 491.071 239.026 506.538 230.648C518.766 224.025 522.334 211.561 524.566 203.765C525.157 201.699 525.655 199.961 526.195 198.746C528.773 192.946 530.061 146.866 528.45 138.488C529.247 133.507 526.594 121.748 524.148 110.907C522.639 104.218 521.209 97.8783 520.717 93.6973C519.428 82.7413 510.405 67.9184 508.472 65.0182C506.538 62.1181 501.705 60.5069 494.938 62.4403C489.583 63.9702 487.053 70.746 483.995 78.9359C483.189 81.0961 482.345 83.3547 481.404 85.6414Z" fill="#FFEEE2" fill-opacity="0.95"/>
<path fill-rule="evenodd" clip-rule="evenodd" d="M116.978 57.63C132.389 58.4971 146.613 67.7296 151.301 37.0523C155.154 11.8411 143.946 3.5721 140.094 1.60273C132.389 -2.33602 120.46 0.950781 102.857 11.8411C80.8529 25.454 64.5889 27.9291 50.2384 22.9789C35.8879 18.0288 19.9429 12.1505 7.5058 22.0508C-4.93131 31.9511 -0.147804 49.2766 9.1003 56.3925C16.4988 62.0852 24.7264 95.9937 24.0886 98.1594C24.6201 111.772 22.7315 143.28 19.3051 162.202C15.1594 185.096 14.8405 194.997 8.46254 211.085C5.69873 220.263 1.44669 238.125 1.44669 238.62C1.44671 239.548 -2.62589 254.089 3.11438 267.702C3.23094 268.157 3.3897 268.623 3.5895 269.096C7.87299 279.245 25.6041 290.732 56.2976 289.978C67.1147 289.712 84.281 290.055 96.479 285.337C145.271 266.465 145.59 223.46 147.503 215.107C149.456 206.58 157.64 126.899 134.109 109.848C111.148 93.2093 112.105 95.6843 103.814 95.6843C85.7149 95.6843 65.2267 121.673 64.5889 98.7782C63.9511 75.8837 66.8212 69.696 82.7662 61.652C95.5223 55.2168 108.923 57.63 116.978 57.63ZM94.5655 136.214C81.5544 128.046 71.0732 136.111 67.459 141.164C63.3134 144.567 59.4865 171.174 58.5298 179.837C57.5731 188.5 53.7463 232.432 76.7071 229.648C96.3353 227.268 100.583 214.939 102.597 209.091C102.939 208.098 103.217 207.292 103.495 206.753C105.438 202.983 109.341 182.931 110.192 172.721C110.404 163.955 107.577 144.381 94.5655 136.214Z" fill="#FFEEE2" fill-opacity="0.95"/>
</svg>
