<svg width="40" height="40" viewBox="0 0 40 40" fill="none" xmlns="http://www.w3.org/2000/svg">
<rect width="40" height="40" rx="10" fill="white"/>
<path fill-rule="evenodd" clip-rule="evenodd" d="M20.7744 14.0762C21.8851 13.9214 22.8165 14.8259 23.9038 15.1001C24.6599 15.2907 25.4654 15.1138 25.9495 14.0066C26.7986 12.0647 26.9603 10.0035 24.6103 10.0035C24.1975 9.97514 23.0234 10.1057 21.6285 10.8552C19.8849 11.7921 18.5962 11.9625 17.4591 11.6218C16.322 11.2811 15.0585 10.8765 14.073 11.5579C13.0875 12.2393 13.4665 13.4317 14.1994 13.9214C14.4243 14.0718 14.659 14.5081 14.8599 14.9972C15.3321 16.1468 15.4211 17.4352 15.3296 18.6747C15.265 19.5505 15.1541 20.5026 15.008 21.2036C14.6795 22.7793 14.6542 23.4606 14.1488 24.5679C13.9298 25.1996 13.5929 26.4289 13.5929 26.4629C13.5929 26.5247 13.2913 27.4619 13.6821 28.3706C13.7092 28.4337 13.7327 28.4987 13.7627 28.5604C14.1021 29.2589 15.5071 30.0495 17.9392 29.9976C18.7963 29.9793 20.1566 30.0029 21.1231 29.6782C24.9893 28.3793 25.0146 25.4196 25.1662 24.8447C25.3209 24.2579 25.9694 18.7739 24.1049 17.6004C22.2855 16.4553 22.3613 16.6256 21.7043 16.6256C20.2702 16.6256 18.6467 18.4142 18.5962 16.8386C18.5457 15.2629 18.7731 14.837 20.0365 14.2834C20.2852 14.1744 20.5345 14.1096 20.7744 14.0762ZM20.9715 19.415C20.6092 19.2175 20.2717 19.1579 19.9738 19.1788C19.0997 19.2401 18.5591 20.1237 18.3687 20.9791C18.2456 21.5326 18.1533 22.1242 18.1161 22.4173C18.0403 23.0135 17.737 26.0371 19.5564 25.8455C21.1117 25.6816 21.4483 24.8332 21.6079 24.4307C21.635 24.3623 21.657 24.3069 21.679 24.2698C21.833 24.0103 22.1423 22.6302 22.2097 21.9276C22.2265 21.3243 22.0025 19.9771 20.9715 19.415Z" fill="#141414"/>
</svg>
