<svg width="43" height="43" viewBox="0 0 43 43" fill="none" xmlns="http://www.w3.org/2000/svg">
<path d="M0 9.99999C0 4.47715 4.47715 0 9.99999 0H33C38.5228 0 43 4.47715 43 9.99999V33C43 38.5228 38.5228 43 33 43H9.99999C4.47715 43 0 38.5228 0 33V9.99999Z" fill="black" fill-opacity="0.8"/>
<path fill-rule="evenodd" clip-rule="evenodd" d="M25.5366 12.7692C27.0564 12.8409 28.4593 13.6049 28.9216 11.0662C29.3016 8.9799 28.1963 8.2956 27.8163 8.13263C27.0564 7.80668 25.88 8.07868 24.144 8.9799C21.9739 10.1064 20.3699 10.3113 18.9546 9.90161C17.5393 9.49196 15.9668 9.00551 14.7402 9.8248C13.5137 10.6441 13.9854 12.0779 14.8975 12.6667C15.6271 13.1378 16.4386 15.9439 16.3757 16.1232C16.4281 17.2497 16.2418 19.8571 15.9039 21.423C15.495 23.3176 15.4636 24.1369 14.8346 25.4683C14.562 26.2278 14.1427 27.706 14.1427 27.7469C14.1427 27.8238 13.741 29.0271 14.3071 30.1536C14.3186 30.1913 14.3343 30.2298 14.354 30.269C14.7764 31.1089 16.5251 32.0595 19.5522 31.9971C20.619 31.9751 22.312 32.0035 23.5149 31.613C28.3269 30.0512 28.3583 26.4924 28.547 25.8011C28.7396 25.0955 29.5468 18.5015 27.2261 17.0904C24.9617 15.7135 25.056 15.9183 24.2383 15.9183C22.4534 15.9183 20.4328 18.069 20.3699 16.1744C20.307 14.2797 20.59 13.7677 22.1626 13.102C23.4206 12.5695 24.7422 12.7692 25.5366 12.7692ZM23.3262 19.2723C22.0431 18.5964 21.0094 19.2638 20.6529 19.682C20.2441 19.9636 19.8667 22.1655 19.7723 22.8824C19.678 23.5993 19.3006 27.2349 21.565 27.0045C23.5008 26.8075 23.9196 25.7872 24.1183 25.3033C24.1521 25.2211 24.1795 25.1544 24.2069 25.1098C24.3985 24.7978 24.7834 23.1384 24.8673 22.2935C24.8883 21.5681 24.6094 19.9483 23.3262 19.2723Z" fill="#FFEEE2" fill-opacity="0.8"/>
</svg>
