<svg width="1240" height="109" viewBox="0 0 1240 109" fill="none" xmlns="http://www.w3.org/2000/svg">
<path fill-rule="evenodd" clip-rule="evenodd" d="M212.841 0.86788C187.01 5.09435 172.721 17.0277 168.353 38.021C166.621 46.3434 166.587 64.3101 168.287 72.4408C171.929 89.8512 183.094 100.527 203.76 106.36C210.476 108.255 213.116 108.402 241.116 108.447C269.929 108.492 271.609 108.396 279.589 106.267C299.894 100.846 311.622 89.7939 315.706 72.2303C317.557 64.2735 317.538 46.9729 315.669 37.8021C311.935 19.4773 300.487 8.3192 279.589 2.63253C272.924 0.819039 269.398 0.588807 244.824 0.361415C229.783 0.223289 215.39 0.450682 212.841 0.86788ZM501.153 0.912986C476.156 4.75797 461.266 16.8746 456.589 37.1782C454.3 47.1148 455.105 69.837 458.017 77.4856C464.613 94.8144 478.851 104.913 500.988 107.964C512.201 109.509 552.624 109.244 562.135 107.563C586.313 103.29 599.592 92.9173 604.677 74.3322C606.84 66.4224 607.008 45.5663 604.977 36.8371C600.307 16.7608 586.89 5.81977 561.522 1.40067C552.676 -0.141272 510.233 -0.48331 501.153 0.912986ZM847.14 0.990983C835.435 2.72649 824.083 7.28466 816.695 13.2156C812.185 16.836 807.213 24.5429 804.906 31.4896C803.077 36.9996 802.994 37.0851 799.271 37.3699L795.491 37.6592V19.2819V0.905473H771.388H747.284V53.9948V107.084H771.388H795.491V90.1707V73.2573H799.589C803.461 73.2573 803.723 73.4255 804.339 76.3111C806.352 85.7516 815.063 96.1082 825.276 101.205C837.51 107.31 848.226 108.92 876.773 108.945C901.125 108.966 909.122 108.104 921.345 104.138C936.005 99.3819 945.222 90.5532 949.507 77.1643C952.366 68.2331 953.042 46.7653 950.766 37.2327C948.504 27.7621 944.837 20.945 938.987 15.3382C931.11 7.78828 922.016 3.78545 907.2 1.3471C897.939 -0.177924 856.669 -0.422227 847.14 0.990983ZM1132.32 1.35743C1108.78 5.68726 1095.67 16.4151 1090.72 35.4088C1088.7 43.1768 1087.94 60.2161 1089.28 67.986C1091.14 78.7927 1094.54 85.9968 1100.88 92.5442C1109.18 101.112 1118.03 105.15 1133.86 107.593C1146.13 109.487 1184.56 109.463 1195.35 107.556C1210.3 104.915 1219.96 100.59 1227.11 93.3392C1232.57 87.801 1235.7 82.3013 1238.28 73.6867C1240.54 66.1217 1240.58 44.4237 1238.35 35.9078C1233.11 15.9772 1220.41 5.71734 1195.62 1.39972C1185.03 -0.44478 1142.27 -0.473921 1132.32 1.35743ZM18.1609 1.54536C10.1178 3.37671 5.82742 6.40516 2.59203 12.5344C0.576622 16.354 0.543249 17.0587 0.273478 61.7468L0 107.084H24.5927H49.1855L49.433 83.0558L49.6805 59.0275L64.8285 77.885C73.1599 88.2557 80.3362 96.9671 80.7756 97.2424C81.215 97.5177 83.5762 95.2325 86.0227 92.1646C88.4691 89.0967 95.2681 80.6052 101.132 73.2939L111.793 60.0019L112.04 83.5435L112.288 107.084H136.375H160.463V53.9948V0.905473H136.428H112.394L100.149 15.7047C93.414 23.8448 87.6469 30.5857 87.3326 30.6853C87.0192 30.7839 81.5497 24.1248 75.179 15.8861L63.5964 0.905473L41.8052 1.01447C29.8204 1.0746 19.1806 1.31327 18.1609 1.54536ZM324.55 53.9948V107.084H348.19H371.83V90.1707V73.2573H385.774H399.716L399.597 89.9358L399.476 106.614L423.669 106.865L447.864 107.115L447.623 54.2457L447.384 1.37529L424.44 1.12441C411.821 0.985343 401.495 1.02951 401.495 1.22213C401.495 1.41382 400.655 7.23485 399.627 14.1581C396.284 36.6867 397.101 35.6719 382.316 35.6719H371.83V18.2887V0.905473H348.19H324.55V53.9948ZM629.417 2.21063C623.217 4.45636 620.048 6.97364 617.376 11.777L614.726 16.541L614.643 42.3152C614.598 56.4914 614.596 76.8627 614.639 87.5867L614.716 107.084H661.825C691.85 107.084 710.916 106.713 714.398 106.061C725.573 103.966 734.376 96.7914 737.732 87.0427C740.042 80.3309 740.064 61.2647 737.767 56.0263C735.338 50.4871 730.788 45.2055 726.552 43.0105C718.808 38.9973 714.71 38.5134 688.34 38.5021C674.531 38.4955 663.036 38.2926 662.797 38.0502C662.558 37.8068 662.534 36.1154 662.744 34.2916L663.126 30.9738H693.617H724.108V15.9396V0.905473L678.451 0.946823C643.398 0.97877 632.01 1.27194 629.417 2.21063ZM959.578 53.9234V107.084H983.682H1007.78V98.1576V89.2311H1026.83C1054.26 89.2311 1063.69 86.8416 1072.84 77.573C1079.86 70.4534 1082.84 60.9255 1082.86 45.5005C1082.9 22.3094 1073.96 8.94216 1054.56 3.18502C1049.74 1.75302 1043.38 1.49558 1004.31 1.15449L959.578 0.762641V53.9234ZM1031.97 41.1801C1034.63 44.5111 1034.37 51.0904 1031.47 54.0371C1029.31 56.2199 1028.62 56.3439 1018.49 56.3439H1007.78V47.3187V38.2926L1018.99 38.628C1029.45 38.9409 1030.32 39.1119 1031.97 41.1801ZM264.009 42.6365C266.468 44.7798 266.627 45.3934 266.931 53.8943C267.249 62.8264 267.233 62.9044 264.453 65.7224L261.654 68.5591H241.776C216.172 68.5591 217.013 69.0252 217.013 54.8235C217.013 45.6283 217.162 44.8315 219.289 42.6769C221.563 40.371 221.57 40.3701 241.486 40.3701C261.206 40.3701 261.434 40.3926 264.009 42.6365ZM553.248 42.6374C555.662 44.7422 555.873 45.4902 556.177 53.0119C556.549 62.1724 555.481 65.9065 552.034 67.4973C550.554 68.1814 542.644 68.5591 529.805 68.5591C509.881 68.5591 509.875 68.5582 507.601 66.2523C505.5 64.1241 505.325 63.2511 505.325 54.9156C505.325 45.2778 506.104 42.6318 509.325 41.3163C510.439 40.8615 520.192 40.4622 530.998 40.4293C550.472 40.371 550.669 40.3908 553.248 42.6374ZM897.24 41.3708C901.27 42.7944 902.351 46.2033 901.963 56.2659C901.488 68.6531 902.748 68.0292 877.511 68.374L856.69 68.6587L854.366 66.3031C852.18 64.0874 852.041 63.3573 852.041 54.1057C852.041 44.5938 852.122 44.2 854.484 42.318C856.772 40.4932 858.111 40.3701 875.668 40.3701C886.532 40.3701 895.598 40.7911 897.24 41.3708ZM1186.91 42.9795C1188.71 44.8014 1189.07 46.3076 1189.35 53.119C1189.72 62.2213 1188.51 66.3867 1185.11 67.6984C1183.88 68.172 1174.17 68.5591 1163.52 68.5591C1144.71 68.5591 1144.1 68.499 1141.71 66.4177C1139.39 64.3937 1139.25 63.783 1139.16 55.377C1139.11 50.4824 1139.37 45.587 1139.73 44.4979C1140.96 40.8343 1143.54 40.434 1164.66 40.6417C1184.26 40.8343 1184.86 40.8982 1186.91 42.9795ZM689.039 65.416C692.3 68.4078 690.47 73.619 685.803 74.6329C684.691 74.8744 678.984 74.9806 673.121 74.8697L662.459 74.6667L662.181 69.2638L661.903 63.861H674.623C685.159 63.861 687.635 64.1278 689.039 65.416Z" fill="white"/>
</svg>
