<svg width="291" height="41" viewBox="0 0 291 41" fill="none" xmlns="http://www.w3.org/2000/svg">
<g clip-path="url(#clip0_365_1742)">
<path fill-rule="evenodd" clip-rule="evenodd" d="M39.6817 20.027C39.6817 31.0876 30.7987 40.054 19.8409 40.054C8.88306 40.054 0 31.0876 0 20.027C0 8.9664 8.88306 0 19.8409 0C30.7987 0 39.6817 8.9664 39.6817 20.027ZM20.5519 14.7848C18.6221 15.595 14.7651 17.272 8.98112 19.8156C8.04189 20.1926 7.54988 20.5614 7.50509 20.9221C7.42939 21.5315 8.18554 21.7715 9.21521 22.0983C9.35527 22.1428 9.50039 22.1889 9.64917 22.2377C10.6622 22.5701 12.0249 22.9589 12.7334 22.9744C13.376 22.9884 14.0932 22.721 14.885 22.1721C20.2892 18.4899 23.0789 16.6288 23.254 16.5887C23.3776 16.5603 23.5488 16.5248 23.6648 16.6288C23.7808 16.7329 23.7694 16.93 23.7571 16.9829C23.6822 17.3052 20.7141 20.0906 19.1781 21.532C18.6992 21.9814 18.3595 22.3001 18.2901 22.3729C18.1346 22.536 17.976 22.6902 17.8237 22.8385C16.8825 23.7543 16.1768 24.441 17.8628 25.5625C18.673 26.1014 19.3213 26.547 19.9681 26.9917C20.6745 27.4772 21.379 27.9615 22.2906 28.5646C22.5228 28.7183 22.7446 28.8779 22.9607 29.0334C23.7827 29.6249 24.5213 30.1564 25.4337 30.0716C25.9638 30.0224 26.5115 29.5192 26.7896 28.0184C27.4469 24.4716 28.7389 16.7867 29.0375 13.62C29.0636 13.3425 29.0307 12.9875 29.0043 12.8316C28.9779 12.6757 28.9226 12.4536 28.7219 12.2892C28.4842 12.0945 28.1172 12.0535 27.9531 12.0564C27.2068 12.0697 26.0619 12.4715 20.5519 14.7848Z" fill="white"/>
</g>
<g clip-path="url(#clip1_365_1742)">
<path d="M82.6702 3.60643C87.9715 3.60643 88.5992 3.6299 90.6841 3.72377C92.6217 3.80983 93.668 4.13839 94.3655 4.4122C95.2878 4.77206 95.9543 5.21015 96.6441 5.9064C97.3416 6.61048 97.7679 7.27544 98.1244 8.20638C98.3957 8.91046 98.7212 9.97439 98.8064 11.9223C98.8994 14.0346 98.9227 14.6682 98.9227 20.0114C98.9227 25.3623 98.8994 25.996 98.8064 28.1004C98.7212 30.0562 98.3957 31.1123 98.1244 31.8164C97.7679 32.7473 97.3339 33.4201 96.6441 34.1163C95.9466 34.8204 95.2878 35.2507 94.3655 35.6105C93.668 35.8843 92.6139 36.2129 90.6841 36.299C88.5915 36.3928 87.9637 36.4163 82.6702 36.4163C77.369 36.4163 76.7412 36.3928 74.6564 36.299C72.7188 36.2129 71.6725 35.8843 70.975 35.6105C70.0527 35.2507 69.3861 34.8126 68.6964 34.1163C67.9988 33.4123 67.5726 32.7473 67.216 31.8164C66.9448 31.1123 66.6193 30.0483 66.534 28.1004C66.441 25.9882 66.4178 25.3545 66.4178 20.0114C66.4178 14.6604 66.441 14.0267 66.534 11.9223C66.6193 9.96657 66.9448 8.91046 67.216 8.20638C67.5726 7.27544 68.0066 6.60266 68.6964 5.9064C69.3939 5.20233 70.0527 4.77206 70.975 4.4122C71.6725 4.13839 72.7265 3.80983 74.6564 3.72377C76.7412 3.6299 77.369 3.60643 82.6702 3.60643ZM82.6702 0C77.2837 0 76.6095 0.0234692 74.4936 0.117346C72.3855 0.211222 70.9362 0.555437 69.6806 1.04829C68.3708 1.56461 67.2625 2.24522 66.162 3.36391C65.0537 4.47479 64.3794 5.59348 63.8679 6.90776C63.3796 8.18291 63.0386 9.638 62.9456 11.7659C62.8526 13.9094 62.8293 14.59 62.8293 20.027C62.8293 25.464 62.8526 26.1446 62.9456 28.2803C63.0386 30.4082 63.3796 31.8711 63.8679 33.1385C64.3794 34.4605 65.0537 35.5792 66.162 36.6901C67.2625 37.801 68.3708 38.4894 69.6729 38.9979C70.9362 39.4908 72.3778 39.835 74.4859 39.9289C76.6017 40.0227 77.276 40.0462 82.6625 40.0462C88.049 40.0462 88.7232 40.0227 90.8391 39.9289C92.9472 39.835 94.3965 39.4908 95.652 38.9979C96.9541 38.4894 98.0624 37.801 99.1629 36.6901C100.263 35.5792 100.946 34.4605 101.449 33.1463C101.938 31.8711 102.279 30.416 102.372 28.2882C102.465 26.1525 102.488 25.4719 102.488 20.0348C102.488 14.5978 102.465 13.9172 102.372 11.7815C102.279 9.65365 101.938 8.19074 101.449 6.9234C100.961 5.59348 100.287 4.47479 99.1785 3.36391C98.0779 2.25304 96.9696 1.56461 95.6675 1.05611C94.4042 0.56326 92.9627 0.219045 90.8546 0.125169C88.731 0.0234692 88.0567 0 82.6702 0Z" fill="white"/>
<path d="M82.6702 9.73926C77.0435 9.73926 72.4785 14.347 72.4785 20.0266C72.4785 25.7061 77.0435 30.3139 82.6702 30.3139C88.297 30.3139 92.8619 25.7061 92.8619 20.0266C92.8619 14.347 88.297 9.73926 82.6702 9.73926ZM82.6702 26.6996C79.0198 26.6996 76.0592 23.7112 76.0592 20.0266C76.0592 16.3419 79.0198 13.3535 82.6702 13.3535C86.3206 13.3535 89.2813 16.3419 89.2813 20.0266C89.2813 23.7112 86.3206 26.6996 82.6702 26.6996Z" fill="white"/>
<path d="M95.6443 9.33234C95.6443 10.6623 94.5748 11.734 93.2649 11.734C91.9474 11.734 90.8856 10.6544 90.8856 9.33234C90.8856 8.00242 91.9551 6.93066 93.2649 6.93066C94.5748 6.93066 95.6443 8.01025 95.6443 9.33234Z" fill="white"/>
</g>
<g clip-path="url(#clip2_365_1742)">
<path d="M145.5 0C134.541 0 125.659 8.96522 125.659 20.027C125.659 28.515 130.89 35.7592 138.269 38.6772C138.098 37.0891 137.935 34.6639 138.338 32.9351C138.703 31.3704 140.663 22.9841 140.663 22.9841C140.663 22.9841 140.067 21.7872 140.067 20.0114C140.067 17.2264 141.663 15.1454 143.655 15.1454C145.345 15.1454 146.166 16.4284 146.166 17.9695C146.166 19.6906 145.081 22.2566 144.523 24.6348C144.058 26.6297 145.515 28.2569 147.46 28.2569C150.987 28.2569 153.699 24.5018 153.699 19.0882C153.699 14.2927 150.289 10.9366 145.414 10.9366C139.772 10.9366 136.455 15.208 136.455 19.628C136.455 21.3491 137.114 23.1953 137.935 24.1967C138.098 24.3923 138.121 24.5722 138.075 24.7678C137.928 25.4015 137.586 26.7627 137.524 27.0365C137.439 27.4042 137.238 27.4824 136.858 27.3025C134.378 26.1368 132.828 22.4835 132.828 19.542C132.828 13.221 137.377 7.42408 145.934 7.42408C152.816 7.42408 158.164 12.3761 158.164 18.9944C158.164 25.8943 153.854 31.4487 147.871 31.4487C145.864 31.4487 143.973 30.3926 143.322 29.1487C143.322 29.1487 142.33 32.9742 142.089 33.9129C141.64 35.6496 140.431 37.8323 139.625 39.1622C141.485 39.7411 143.454 40.054 145.5 40.054C156.459 40.054 165.34 31.0888 165.34 20.027C165.34 8.96522 156.459 0 145.5 0Z" fill="white"/>
</g>
<path d="M188.489 40.054L191.278 29.7685C189.557 26.7578 188.653 23.3448 188.654 19.8451C188.659 8.90368 197.48 0 208.318 0C213.578 0.00166892 218.515 2.06946 222.228 5.82119C225.94 9.57291 227.984 14.5596 227.982 19.8635C227.977 30.8066 219.156 39.7102 208.318 39.7102C205.028 39.7086 201.786 38.8758 198.914 37.2936L188.489 40.054ZM199.396 33.7005C202.167 35.361 204.813 36.3557 208.312 36.3574C217.319 36.3574 224.657 28.9574 224.662 19.8601C224.665 10.7445 217.362 3.35452 208.325 3.35119C199.31 3.35119 191.978 10.7512 191.974 19.8468C191.973 23.5601 193.051 26.3405 194.861 29.2495L193.209 35.3377L199.396 33.7005ZM218.224 24.5815C218.101 24.3745 217.774 24.251 217.281 24.0024C216.79 23.7537 214.375 22.5538 213.923 22.3885C213.473 22.2233 213.146 22.1399 212.817 22.6372C212.49 23.1329 211.547 24.251 211.261 24.5815C210.975 24.9119 210.687 24.9537 210.196 24.705C209.705 24.4563 208.121 23.934 206.245 22.2433C204.785 20.9282 203.798 19.3044 203.512 18.807C203.226 18.3114 203.482 18.0427 203.727 17.7957C203.948 17.5737 204.218 17.2166 204.464 16.9262C204.714 16.6391 204.795 16.4322 204.96 16.1C205.124 15.7696 205.043 15.4792 204.919 15.2305C204.795 14.9835 203.813 12.5419 203.404 11.5489C203.004 10.5826 202.599 10.7128 202.298 10.6978L201.356 10.6811C201.028 10.6811 200.496 10.8046 200.046 11.3019C199.596 11.7992 198.327 12.9975 198.327 15.4392C198.327 17.8808 200.088 20.239 200.332 20.5694C200.579 20.8999 203.796 25.9099 208.725 28.0578C209.897 28.5685 210.813 28.8739 211.526 29.1026C212.703 29.4798 213.774 29.4264 214.621 29.2995C215.565 29.1577 217.528 28.0996 217.938 26.9413C218.348 25.7814 218.348 24.7884 218.224 24.5815Z" fill="white"/>
<g clip-path="url(#clip3_365_1742)">
<path fill-rule="evenodd" clip-rule="evenodd" d="M254.108 2.81557C251.318 5.63115 251.318 10.1627 251.318 19.2259V20.8281C251.318 29.8913 251.318 34.4228 254.108 37.2385C256.897 40.054 261.386 40.054 270.365 40.054H271.953C280.932 40.054 285.421 40.054 288.211 37.2385C291 34.4228 291 29.8913 291 20.8281V19.2259C291 10.1627 291 5.63115 288.211 2.81557C285.421 0 280.932 0 271.953 0H270.365C261.386 0 256.897 0 254.108 2.81557ZM258.015 12.1832C258.23 22.5972 263.388 28.8557 272.432 28.8557H272.945V22.8976C276.268 23.2314 278.781 25.6847 279.79 28.8557H284.486C283.196 24.1159 279.806 21.4957 277.69 20.4944C279.806 19.2594 282.782 16.2553 283.493 12.1832H279.228C278.302 15.4876 275.557 18.4917 272.945 18.7754V12.1832H268.679V23.7321C266.034 23.0645 262.694 19.8268 262.545 12.1832H258.015Z" fill="white"/>
</g>
<defs>
<clipPath id="clip0_365_1742">
<rect width="39.6817" height="40.054" fill="white"/>
</clipPath>
<clipPath id="clip1_365_1742">
<rect width="39.6817" height="40.054" fill="white" transform="translate(62.8293)"/>
</clipPath>
<clipPath id="clip2_365_1742">
<rect width="39.6817" height="40.054" fill="white" transform="translate(125.659)"/>
</clipPath>
<clipPath id="clip3_365_1742">
<rect width="39.6817" height="40.054" fill="white" transform="translate(251.318)"/>
</clipPath>
</defs>
</svg>
