<svg width="1440" height="1094" viewBox="0 0 1440 1094" fill="none" xmlns="http://www.w3.org/2000/svg">
<path d="M1102.59 984.128C1195.5 961.174 1275.56 918.436 1331.98 868.855C1277.45 945.47 1217.9 1024.45 1170 1085.98C1165.05 1051.29 1145.42 1005.84 1102.59 984.128Z" fill="#141414"/>
<path fill-rule="evenodd" clip-rule="evenodd" d="M1415.82 746.041C1391.38 783.93 1362.47 826.023 1331.98 868.855C1376.15 830.041 1405.82 787.034 1415.82 746.041Z" fill="#141414"/>
<path d="M1102.59 984.128C1195.5 961.174 1275.56 918.436 1331.98 868.855M1102.59 984.128C1145.42 1005.84 1165.05 1051.29 1170 1085.98C1217.9 1024.45 1277.45 945.47 1331.98 868.855M1102.59 984.128C1061.85 963.469 1000.1 964.292 910 1016.31C679 1149.68 267.622 1081.33 155 1016.31C64.9022 964.292 26.1977 760.582 -18.5949 677.48M1102.59 984.128C985.861 1012.97 848.854 1010.58 713 951.287C492.646 855.118 395 1093.38 84.5 782.881C-226 472.381 89.5 779.995 372 616.893C654.5 453.792 361.5 522.22 75.1035 445.48C-211.293 368.74 333.5 77.9798 -44 0.979797M1331.98 868.855C1362.47 826.023 1391.38 783.93 1415.82 746.041M1331.98 868.855C1376.15 830.041 1405.82 787.034 1415.82 746.041M1415.82 746.041C1442.15 638.105 1332.08 544.139 991 577.48C416 633.685 181.667 -44.3637 518.5 89.1971C1098 318.98 1247.38 -13.218 1309.5 89.1971C1377 200.48 1271.9 706.48 1447.7 604.98C1518.87 563.894 1485.62 637.82 1415.82 746.041Z" stroke="#141414" stroke-width="2"/>
</svg>

