<svg xmlns="http://www.w3.org/2000/svg" width="27" height="38" viewBox="0 0 27 38" fill="none">
  <path fill-rule="evenodd" clip-rule="evenodd" d="M18.5448 8.13846C20.2535 9.55444 24.058 11.3022 25.8155 7.61253C27.5731 3.92289 27.9078 0.00669883 23.0433 0.00669883C22.1889 -0.0472432 19.7584 0.20089 16.871 1.62496C13.2618 3.40505 10.5941 3.7287 8.2403 3.08139C5.88647 2.43409 3.27111 1.66541 1.23113 2.96002C-0.808852 4.25463 -0.0242431 6.5202 1.49267 7.4507C2.7062 8.1951 4.05571 12.6291 3.95111 12.9123C4.03829 14.6924 3.72851 18.8125 3.1665 21.2868C2.48651 24.2806 2.4342 25.5752 1.38806 27.679C0.934728 28.8792 0.237296 31.2149 0.237297 31.2796C0.237298 31.401 -0.430709 33.3024 0.510832 35.0825C0.529952 35.142 0.555991 35.2029 0.588764 35.2648C1.29136 36.5919 4.19968 38.094 9.23414 37.9954C11.0084 37.9606 13.8241 38.0055 15.8248 37.3885C23.8279 34.9207 23.8802 29.2972 24.194 28.2049C24.5143 27.09 25.8567 16.6704 21.9971 14.4407C18.231 12.265 18.3879 12.5887 17.0279 12.5887C14.0593 12.5887 10.6987 15.987 10.5941 12.9932C10.4895 9.99946 10.9603 9.19033 13.5756 8.13846C15.6679 7.29697 17.7776 7.84178 18.5448 8.13846ZM15.511 17.8885C13.3769 16.8204 11.6577 17.875 11.0649 18.5358C10.3849 18.9808 9.7572 22.4601 9.60028 23.5929C9.44336 24.7256 8.81567 30.4705 12.5818 30.1064C15.8013 29.7951 16.4979 28.183 16.8284 27.4183C16.8845 27.2885 16.9301 27.183 16.9756 27.1126C17.2943 26.6196 17.9346 23.9974 18.0741 22.6624C18.1089 21.5161 17.6451 18.9565 15.511 17.8885Z" fill="#141414"/>
  <path d="M23.0117 0.505859L23.0273 0.506836H23.043C24.1976 0.506836 24.9799 0.739766 25.4951 1.08984C25.9988 1.43216 26.2944 1.91742 26.4238 2.5293C26.6927 3.80033 26.2331 5.57347 25.3643 7.39746C24.9631 8.23955 24.4649 8.73335 23.9453 9.00781C23.4226 9.28378 22.8338 9.36102 22.2168 9.29297C20.9636 9.15472 19.6748 8.4255 18.8643 7.75391L18.8008 7.70117L18.7256 7.67188L18.3525 7.54395C17.3388 7.23043 15.3661 6.87952 13.3887 7.6748C12.0733 8.20385 11.1611 8.7185 10.6377 9.57715C10.1206 10.4255 10.0425 11.5163 10.0947 13.0107C10.1092 13.4243 10.1802 13.7876 10.3418 14.0781C10.5144 14.3884 10.7756 14.5889 11.0947 14.6758C11.3914 14.7565 11.7053 14.7303 11.9951 14.6699C12.2893 14.6086 12.6029 14.5022 12.918 14.3799C13.2337 14.2573 13.5722 14.1103 13.9111 13.9658C14.2542 13.8196 14.6041 13.6734 14.959 13.542C15.6738 13.2774 16.3747 13.0889 17.0283 13.0889C17.7911 13.0888 17.9555 13.0159 18.459 13.1758C18.9986 13.3472 19.8519 13.7792 21.7471 14.874C22.5542 15.3404 23.1412 16.2684 23.5371 17.5254C23.9301 18.773 24.1105 20.2698 24.1631 21.7588C24.2155 23.2435 24.1403 24.6981 24.0312 25.8506C23.9209 27.017 23.78 27.8358 23.7139 28.0664C23.5181 28.748 23.4739 30.248 22.458 32.0342C21.4719 33.7677 19.5647 35.7125 15.6777 36.9111C13.763 37.5016 11.043 37.4595 9.22461 37.4951C6.75659 37.5435 4.83413 37.1991 3.45898 36.6953C2.06285 36.1838 1.29714 35.5352 1.03027 35.0312C1.00957 34.9921 0.996393 34.9579 0.987305 34.9297L0.973633 34.8877L0.953125 34.8486L0.813477 34.5547C0.524982 33.8662 0.479861 33.1678 0.519531 32.5938C0.542096 32.2674 0.592201 31.9866 0.636719 31.7793C0.658981 31.6756 0.679874 31.5905 0.696289 31.5234C0.704036 31.4918 0.711688 31.4581 0.717773 31.4307C0.719454 31.4233 0.737306 31.3518 0.737305 31.2793C0.737305 31.3189 0.732071 31.3498 0.731445 31.3535C0.730032 31.3624 0.728731 31.3691 0.728516 31.3701C0.728154 31.3718 0.728635 31.3697 0.730469 31.3623C0.734218 31.3473 0.740477 31.3226 0.75 31.2881C0.768904 31.2195 0.797169 31.1211 0.833008 30.999C0.904599 30.7552 1.00533 30.4224 1.12012 30.0537C1.34805 29.3216 1.6277 28.461 1.84766 27.876C2.91718 25.7155 2.99153 24.3154 3.6543 21.3975C4.2213 18.901 4.53376 14.7865 4.45215 12.9365C4.4541 12.9163 4.45572 12.8994 4.45605 12.8877C4.45727 12.8442 4.45542 12.8022 4.45215 12.7666C4.44554 12.6948 4.43219 12.6141 4.41602 12.5312C4.38325 12.3635 4.33101 12.1497 4.26367 11.9092C4.12853 11.4264 3.92608 10.8075 3.68262 10.1748C3.43976 9.54371 3.15058 8.88653 2.83887 8.33301C2.54047 7.80314 2.17602 7.28335 1.75391 7.02441C1.1049 6.62623 0.628141 5.9475 0.522461 5.26562C0.423107 4.62397 0.64124 3.9262 1.49902 3.38184C2.39168 2.8154 3.43131 2.68453 4.57227 2.79004C5.7219 2.89639 6.91716 3.23615 8.10742 3.56348C10.618 4.25389 13.4153 3.88648 17.0918 2.07324C19.911 0.68278 22.2553 0.458106 23.0117 0.505859ZM15.7344 17.4414C13.3746 16.2606 11.4437 17.3951 10.7236 18.1699C10.5775 18.2862 10.4657 18.4396 10.3828 18.5801C10.2812 18.7524 10.1884 18.9576 10.1045 19.1748C9.93653 19.61 9.78326 20.1454 9.65039 20.6875C9.38401 21.7743 9.18577 22.9447 9.10547 23.5244C9.02581 24.0995 8.81839 25.8874 9.12891 27.5049C9.28408 28.313 9.57927 29.1379 10.1387 29.7412C10.7207 30.3689 11.5446 30.7094 12.6299 30.6045C14.3214 30.441 15.4048 29.9283 16.1162 29.3096C16.8245 28.6934 17.1177 28.0083 17.2871 27.6162C17.3505 27.4696 17.378 27.4108 17.3955 27.3838C17.5167 27.1962 17.6337 26.8772 17.7383 26.5488C17.8497 26.199 17.9667 25.7714 18.0771 25.3223C18.2969 24.4284 18.4982 23.4139 18.5713 22.7139L18.5732 22.6963L18.5742 22.6777C18.5936 22.0412 18.4761 21.0436 18.0684 20.0557C17.6585 19.0627 16.9389 18.0442 15.7344 17.4414Z" stroke="#141414" stroke-opacity="0.9"/>
</svg>
