<svg width="44" height="44" viewBox="0 0 44 44" fill="none" xmlns="http://www.w3.org/2000/svg">
<path d="M0 10.1618C0 4.54958 4.54958 0 10.1618 0H33.8382C39.4504 0 44 4.54958 44 10.1618V33.8382C44 39.4504 39.4504 44 33.8382 44H10.1618C4.54958 44 0 39.4504 0 33.8382V10.1618Z" fill="#1E1D19"/>
<path d="M14.4862 21.014L24.9144 13.244V22.2409L14.4862 31.2377V21.014Z" fill="white"/>
<path d="M4.05826 21.014L14.4864 13.244V24.3878L4.05826 31.2377V21.014Z" fill="white"/>
<path d="M24.9142 19.9917L35.3423 13.244V31.2377H24.9142V19.9917Z" fill="white"/>
<path d="M39.841 18.3559C39.841 21.1791 37.5524 23.4677 34.7292 23.4677C31.906 23.4677 29.6174 21.1791 29.6174 18.3559C32.1733 16.7201 19.9049 23.161 34.7292 13.244C37.5524 13.244 39.841 15.5327 39.841 18.3559Z" fill="white"/>
<circle cx="34.7291" cy="26.1255" r="5.11183" fill="white"/>
</svg>
